<svg xmlns="http://www.w3.org/2000/svg" xmlns:xlink="http://www.w3.org/1999/xlink" version="1.1" x="0px" y="0px" viewBox="0 0 512 512" enable-background="new 0 0 512 512" xml:space="preserve"><svg height="512" viewBox="0 0 64 64" width="512" xmlns="http://www.w3.org/2000/svg" xmlns:xlink="http://www.w3.org/1999/xlink"><linearGradient id="New_Gradient_Swatch_1" gradientUnits="userSpaceOnUse" x1="32" x2="32" y1="-.218" y2="65.059"><stop offset="0" stop-color="#fff33b"/><stop offset=".014" stop-color="#fee72e"/><stop offset=".042" stop-color="#fed51b"/><stop offset=".07" stop-color="#fdca10"/><stop offset=".1" stop-color="#fdc70c"/><stop offset=".4" stop-color="#f3903f"/><stop offset=".8" stop-color="#ed683c"/><stop offset="1" stop-color="#e93e3a"/></linearGradient><linearGradient id="New_Gradient_Swatch_1-2" x1="26" x2="26" xlink:href="#New_Gradient_Swatch_1" y1="-.218" y2="65.059"/><linearGradient id="New_Gradient_Swatch_1-3" x1="45" x2="45" xlink:href="#New_Gradient_Swatch_1" y1="-.218" y2="65.059"/><g id="Dollar"><path d="m45 28c-.338 0-.667.031-1 .051v-.051a1 1 0 0 0 1-1v-3h2a1 1 0 0 0 1-1v-3h1a1 1 0 0 0 .571-1.821l-23-16a1 1 0 0 0 -1.142 0l-23 16a1 1 0 0 0 .571 1.821h1v3a1 1 0 0 0 1 1h2v3a1 1 0 0 0 1 1v12a1 1 0 0 0 -1 1v3h-2a1 1 0 0 0 -1 1v3h-1a1 1 0 0 0 -1 1v4a1 1 0 0 0 1 1h27.6a16.991 16.991 0 1 0 14.4-26zm-3 .281a16.81 16.81 0 0 0 -4 1.245v-1.526h4zm-13.949 15.719h-5.051v-2h5.281a16.853 16.853 0 0 0 -.23 2zm-12.051-4v-12a1 1 0 0 0 1-1v-3h4v3a1 1 0 0 0 1 1v12a1 1 0 0 0 -1 1v3h-4v-3a1 1 0 0 0 -1-1zm8 0v-12h4v12zm5-14h-6v-2h6zm1 2a1 1 0 0 0 1-1v-3h4v3a1 1 0 0 0 1 1v2.6a17.112 17.112 0 0 0 -6 6.413zm13-2h-6v-2h6zm-17-21.782 19.812 13.782h-5.812v-2h-2v2h-2v-2h-2v2h-2v-2h-2v2h-8v-2h-2v2h-2v-2h-2v2h-2v-2h-2v2h-5.812zm-20 15.782h40v2h-40zm9 4v2h-6v-2zm-5 4h4v12h-4zm-1 14h6v2h-6zm-3 4h22.051a16.853 16.853 0 0 0 .23 2h-22.281zm-2 6v-2h24.753a16.7 16.7 0 0 0 .773 2zm41 8a15 15 0 1 1 15-15 15.017 15.017 0 0 1 -15 15z" fill="url(#New_Gradient_Swatch_1)"/><path d="m26 16a4 4 0 1 0 -4-4 4 4 0 0 0 4 4zm0-6a2 2 0 1 1 -2 2 2 2 0 0 1 2-2z" fill="url(#New_Gradient_Swatch_1-2)"/><g fill="url(#New_Gradient_Swatch_1-3)"><path d="m45 32a13 13 0 1 0 13 13 13.015 13.015 0 0 0 -13-13zm0 24a11 11 0 1 1 11-11 11.013 11.013 0 0 1 -11 11z"/><path d="m45 40a2 2 0 0 1 2 2h2a4 4 0 0 0 -3-3.858v-2.142h-2v2.142a3.992 3.992 0 0 0 1 7.858 2 2 0 1 1 -2 2h-2a4 4 0 0 0 3 3.858v2.142h2v-2.142a3.992 3.992 0 0 0 -1-7.858 2 2 0 0 1 0-4z"/></g></g></svg>