<svg xmlns="http://www.w3.org/2000/svg" xmlns:xlink="http://www.w3.org/1999/xlink" version="1.1" x="0px" y="0px" viewBox="0 0 512 512" enable-background="new 0 0 512 512" xml:space="preserve"><svg id="Layer_3" enable-background="new 0 0 64 64" height="512" viewBox="0 0 64 64" width="512" xmlns="http://www.w3.org/2000/svg"><g><g><path d="m18 50h13l5 5-3 3h13v4h-15l-6-6h-7" fill="#efbe9a"/></g><g><path d="m17 12h8v21h-8z" fill="#e47c6e"/></g><g><path d="m39 12h8v17h-8z" fill="#669e4f"/></g><g><path d="m25 2h14v29h-14z" fill="#3d98f7"/></g><g><circle cx="23" cy="37" fill="#f5b953" r="8"/></g><g><circle cx="41" cy="31" fill="#f5b953" r="8"/></g><g><path d="m46 63h-15c-.266 0-.52-.105-.707-.293l-5.707-5.707h-6.586v-2h7c.266 0 .52.105.707.293l5.707 5.707h13.586v-2h-12v-2h13c.553 0 1 .447 1 1v4c0 .553-.447 1-1 1z"/></g><g><path d="m33 59c-.256 0-.512-.098-.707-.293l-3-3 1.414-1.414 2.293 2.293 1.586-1.586-4-4h-12.586v-2h13c.266 0 .52.105.707.293l5 5c.391.391.391 1.023 0 1.414l-3 3c-.195.195-.451.293-.707.293z"/></g><g><path d="m17 47h2v12h-2z"/></g><g><path d="m23 46c-4.963 0-9-4.037-9-9s4.037-9 9-9 9 4.037 9 9-4.037 9-9 9zm0-16c-3.859 0-7 3.141-7 7s3.141 7 7 7 7-3.141 7-7-3.141-7-7-7z"/></g><g><path d="m25 40h-5v-2h2.586l-2.293-2.293c-.286-.286-.372-.716-.217-1.09.154-.374.52-.617.924-.617h5v2h-2.586l2.293 2.293c.286.286.372.716.217 1.09-.154.374-.52.617-.924.617z"/></g><g><path d="m22 32h2v3h-2z"/></g><g><path d="m22 39h2v3h-2z"/></g><g><path d="m41 40c-4.963 0-9-4.037-9-9s4.037-9 9-9 9 4.037 9 9-4.037 9-9 9zm0-16c-3.859 0-7 3.141-7 7s3.141 7 7 7 7-3.141 7-7-3.141-7-7-7z"/></g><g><path d="m43 34h-5v-2h2.586l-2.293-2.293c-.286-.286-.372-.716-.217-1.09.154-.374.52-.617.924-.617h5v2h-2.586l2.293 2.293c.286.286.372.716.217 1.09-.154.374-.52.617-.924.617z"/></g><g><path d="m40 26h2v3h-2z"/></g><g><path d="m40 33h2v3h-2z"/></g><g><path d="m26 29h-2v-27c0-.553.447-1 1-1h14c.553 0 1 .447 1 1v21h-2v-20h-12z"/></g><g><path d="m28 5h2v2h-2z"/></g><g><path d="m34 5h2v2h-2z"/></g><g><path d="m28 9h2v2h-2z"/></g><g><path d="m34 9h2v2h-2z"/></g><g><path d="m28 13h2v2h-2z"/></g><g><path d="m34 13h2v2h-2z"/></g><g><path d="m28 17h2v2h-2z"/></g><g><path d="m34 17h2v2h-2z"/></g><g><path d="m28 21h2v2h-2z"/></g><g><path d="m34 21h2v2h-2z"/></g><g><path d="m48 26h-2v-13h-7v-2h8c.553 0 1 .447 1 1z"/></g><g><path d="m41 14h2v2h-2z"/></g><g><path d="m43 16h2v2h-2z"/></g><g><path d="m41 18h2v2h-2z"/></g><g><path d="m43 20h2v2h-2z"/></g><g><path d="m18 32h-2v-20c0-.553.447-1 1-1h8v2h-7z"/></g><g><path d="m21 14h2v2h-2z"/></g><g><path d="m19 16h2v2h-2z"/></g><g><path d="m21 18h2v2h-2z"/></g><g><path d="m19 20h2v2h-2z"/></g><g><path d="m21 22h2v2h-2z"/></g><g><path d="m19 24h2v2h-2z"/></g><g><path d="m38 42h2v6h-2z"/></g><g><path d="m42 46h2v6h-2z"/></g></g></svg>